<svg width="620" height="588" viewBox="0 0 620 588" fill="none" xmlns="http://www.w3.org/2000/svg">
<path fill-rule="evenodd" clip-rule="evenodd" d="M0 26.5462C0 11.8851 11.8877 0 26.5523 0C199.188 0 371.824 0 544.46 0C551.099 0 557.499 2.48734 562.395 6.97169C578.725 21.9268 595.054 36.8824 611.384 51.8377C616.873 56.866 620 63.9681 620 71.4121C620 234.759 620 398.107 620 561.454C620 576.115 608.113 588 593.448 588C404.483 588 215.518 588 26.5523 588C11.8877 588 0 576.115 0 561.454C0 550.393 0 539.332 0 528.271C0 361.03 0 193.788 0 26.5462Z" fill="#F8F8F8"/>
</svg>
