<svg width="185" height="50" viewBox="0 0 185 50" fill="none" xmlns="http://www.w3.org/2000/svg">
<path d="M9.46757 2.69688C11.9847 0.941292 14.9797 0 18.0485 0H181.191C182.848 0 184.191 1.34315 184.191 3V37.8801C184.191 40.1934 182.862 42.3007 180.773 43.2961L167.936 49.416C167.13 49.8005 166.248 50 165.354 50H3.19141C1.53455 50 0.191406 48.6569 0.191406 47V12.2971C0.191406 10.3356 1.15018 8.49796 2.75901 7.37585L9.46757 2.69688Z" fill="white"/>
<path d="M36.7684 25.992H30.8804V31H29.3764V19.528H30.8804V24.632H36.7684V19.528H38.2884V31H36.7684V25.992ZM45.3269 29.416C45.2309 29.608 45.1083 29.8107 44.9589 30.024C44.8096 30.2267 44.6229 30.4133 44.3989 30.584C44.1749 30.7547 43.9083 30.8933 43.5989 31C43.3003 31.1067 42.9483 31.16 42.5429 31.16C41.7963 31.16 41.1936 30.952 40.7349 30.536C40.2763 30.1093 40.0469 29.5013 40.0469 28.712C40.0469 27.8053 40.3616 27.1387 40.9909 26.712C41.6309 26.2853 42.5376 26.072 43.7109 26.072H45.2629V25.384C45.2629 24.808 45.1136 24.3973 44.8149 24.152C44.5163 23.9067 44.0043 23.784 43.2789 23.784C42.7669 23.784 42.2816 23.8693 41.8229 24.04C41.3643 24.2 40.9536 24.3867 40.5909 24.6V23.336C40.8896 23.1547 41.2896 22.9787 41.7909 22.808C42.3029 22.6267 42.8629 22.536 43.4709 22.536C44.5163 22.536 45.3109 22.7547 45.8549 23.192C46.3989 23.6187 46.6709 24.2853 46.6709 25.192V29.656C46.6709 29.752 46.6709 29.864 46.6709 29.992C46.6816 30.1093 46.6869 30.232 46.6869 30.36C46.6976 30.488 46.7083 30.6107 46.7189 30.728C46.7296 30.8347 46.7403 30.9253 46.7509 31H45.4709C45.4389 30.8507 45.4069 30.6427 45.3749 30.376C45.3536 30.0987 45.3429 29.8587 45.3429 29.656L45.3269 29.416ZM42.8469 29.896C43.2843 29.896 43.6576 29.8053 43.9669 29.624C44.2763 29.4427 44.5269 29.2347 44.7189 29C44.9109 28.7547 45.0496 28.52 45.1349 28.296C45.2203 28.0613 45.2629 27.896 45.2629 27.8V27.192H43.8549C43.0123 27.192 42.3989 27.3147 42.0149 27.56C41.6416 27.7947 41.4549 28.152 41.4549 28.632C41.4549 29.0053 41.5669 29.3093 41.7909 29.544C42.0149 29.7787 42.3669 29.896 42.8469 29.896ZM48.5848 22.696H55.2408V31H53.8328V23.896H49.9928V31H48.5848V22.696ZM58.6459 29.08L63.0779 22.696H64.5019V31H63.0939V24.632L58.6779 31H57.2379V22.696H58.6459V29.08ZM70.0844 31.16C69.4444 31.16 68.8631 31.064 68.3404 30.872C67.8284 30.6693 67.3911 30.3867 67.0284 30.024C66.6658 29.6507 66.3884 29.1973 66.1964 28.664C66.0044 28.1307 65.9084 27.5227 65.9084 26.84C65.9084 26.168 66.0044 25.5653 66.1964 25.032C66.3991 24.4987 66.6818 24.0507 67.0444 23.688C67.4071 23.3147 67.8498 23.032 68.3724 22.84C68.8951 22.6373 69.4871 22.536 70.1484 22.536C70.6604 22.536 71.1298 22.5947 71.5564 22.712C71.9831 22.8187 72.3351 22.9787 72.6124 23.192V24.456C72.2711 24.232 71.8871 24.0667 71.4604 23.96C71.0444 23.8427 70.6124 23.784 70.1644 23.784C69.1938 23.784 68.4791 24.0347 68.0204 24.536C67.5724 25.0373 67.3484 25.8053 67.3484 26.84C67.3484 27.8747 67.5671 28.6427 68.0044 29.144C68.4418 29.6453 69.1351 29.896 70.0844 29.896C70.5858 29.896 71.0444 29.8373 71.4604 29.72C71.8871 29.592 72.2711 29.432 72.6124 29.24V30.504C72.3138 30.6853 71.9511 30.84 71.5244 30.968C71.1084 31.096 70.6284 31.16 70.0844 31.16ZM79.0644 29.416C78.9684 29.608 78.8458 29.8107 78.6964 30.024C78.5471 30.2267 78.3604 30.4133 78.1364 30.584C77.9124 30.7547 77.6458 30.8933 77.3364 31C77.0378 31.1067 76.6858 31.16 76.2804 31.16C75.5338 31.16 74.9311 30.952 74.4724 30.536C74.0138 30.1093 73.7844 29.5013 73.7844 28.712C73.7844 27.8053 74.0991 27.1387 74.7284 26.712C75.3684 26.2853 76.2751 26.072 77.4484 26.072H79.0004V25.384C79.0004 24.808 78.8511 24.3973 78.5524 24.152C78.2538 23.9067 77.7418 23.784 77.0164 23.784C76.5044 23.784 76.0191 23.8693 75.5604 24.04C75.1018 24.2 74.6911 24.3867 74.3284 24.6V23.336C74.6271 23.1547 75.0271 22.9787 75.5284 22.808C76.0404 22.6267 76.6004 22.536 77.2084 22.536C78.2538 22.536 79.0484 22.7547 79.5924 23.192C80.1364 23.6187 80.4084 24.2853 80.4084 25.192V29.656C80.4084 29.752 80.4084 29.864 80.4084 29.992C80.4191 30.1093 80.4244 30.232 80.4244 30.36C80.4351 30.488 80.4458 30.6107 80.4564 30.728C80.4671 30.8347 80.4778 30.9253 80.4884 31H79.2084C79.1764 30.8507 79.1444 30.6427 79.1124 30.376C79.0911 30.0987 79.0804 29.8587 79.0804 29.656L79.0644 29.416ZM76.5844 29.896C77.0218 29.896 77.3951 29.8053 77.7044 29.624C78.0138 29.4427 78.2644 29.2347 78.4564 29C78.6484 28.7547 78.7871 28.52 78.8724 28.296C78.9578 28.0613 79.0004 27.896 79.0004 27.8V27.192H77.5924C76.7498 27.192 76.1364 27.3147 75.7524 27.56C75.3791 27.7947 75.1924 28.152 75.1924 28.632C75.1924 29.0053 75.3044 29.3093 75.5284 29.544C75.7524 29.7787 76.1044 29.896 76.5844 29.896ZM85.6663 23.896V31H84.2583V23.896H81.6503V22.696H88.3223V23.896H85.6663ZM95.8233 28.232C95.8233 28.712 95.738 29.128 95.5673 29.48C95.3966 29.832 95.1566 30.12 94.8473 30.344C94.538 30.568 94.17 30.7333 93.7433 30.84C93.3166 30.9467 92.8526 31 92.3513 31H89.5993V22.696H91.0073V25.592H92.4473C93.5033 25.592 94.33 25.8 94.9273 26.216C95.5246 26.632 95.8233 27.304 95.8233 28.232ZM91.0073 26.792V29.8H92.3513C92.9593 29.8 93.45 29.688 93.8233 29.464C94.2073 29.2293 94.3993 28.8453 94.3993 28.312C94.3993 27.768 94.2286 27.3787 93.8873 27.144C93.546 26.9093 93.066 26.792 92.4473 26.792H91.0073ZM105.956 27.32H101.94V31H100.532V22.696H101.94V26.12H105.956V22.696H107.364V31H105.956V27.32ZM114.236 29.416C114.14 29.608 114.018 29.8107 113.868 30.024C113.719 30.2267 113.532 30.4133 113.308 30.584C113.084 30.7547 112.818 30.8933 112.508 31C112.21 31.1067 111.858 31.16 111.452 31.16C110.706 31.16 110.103 30.952 109.644 30.536C109.186 30.1093 108.956 29.5013 108.956 28.712C108.956 27.8053 109.271 27.1387 109.9 26.712C110.54 26.2853 111.447 26.072 112.62 26.072H114.172V25.384C114.172 24.808 114.023 24.3973 113.724 24.152C113.426 23.9067 112.914 23.784 112.188 23.784C111.676 23.784 111.191 23.8693 110.732 24.04C110.274 24.2 109.863 24.3867 109.5 24.6V23.336C109.799 23.1547 110.199 22.9787 110.7 22.808C111.212 22.6267 111.772 22.536 112.38 22.536C113.426 22.536 114.22 22.7547 114.764 23.192C115.308 23.6187 115.58 24.2853 115.58 25.192V29.656C115.58 29.752 115.58 29.864 115.58 29.992C115.591 30.1093 115.596 30.232 115.596 30.36C115.607 30.488 115.618 30.6107 115.628 30.728C115.639 30.8347 115.65 30.9253 115.66 31H114.38C114.348 30.8507 114.316 30.6427 114.284 30.376C114.263 30.0987 114.252 29.8587 114.252 29.656L114.236 29.416ZM111.756 29.896C112.194 29.896 112.567 29.8053 112.876 29.624C113.186 29.4427 113.436 29.2347 113.628 29C113.82 28.7547 113.959 28.52 114.044 28.296C114.13 28.0613 114.172 27.896 114.172 27.8V27.192H112.764C111.922 27.192 111.308 27.3147 110.924 27.56C110.551 27.7947 110.364 28.152 110.364 28.632C110.364 29.0053 110.476 29.3093 110.7 29.544C110.924 29.7787 111.276 29.896 111.756 29.896ZM125.414 24.328L122.598 30.072H121.478L118.822 24.296V31H117.494V22.696H119.59L122.134 28.264L124.854 22.696H126.806V31H125.414V24.328Z" fill="#00205C"/>
<path d="M143.625 29.7274L152.396 21.2421M152.396 21.2421L146.807 21.1943M152.396 21.2421L152.446 26.6491" stroke="#00205C" stroke-width="1.8" stroke-linecap="square"/>
</svg>
