<svg width="460" height="370" viewBox="0 0 460 370" fill="none" xmlns="http://www.w3.org/2000/svg">
<path fill-rule="evenodd" clip-rule="evenodd" d="M460 23.1246C460 10.3531 451.784 0 441.648 0C358.728 0 135.131 0 52.2103 0C47.6208 0 43.1982 2.16653 39.814 6.07283C28.5279 19.1007 17.2415 32.1286 5.95516 45.1566C2.16041 49.5369 0 55.7235 0 62.2083C0 157.097 0 251.986 0 346.875C0 359.647 8.21657 370 18.3521 370C101.273 370 324.869 370 407.79 370C412.379 370 416.801 367.833 420.185 363.927C431.472 350.899 442.758 337.871 454.045 324.843C457.839 320.462 460 314.275 460 307.791C460 212.902 460 118.013 460 23.1246Z" fill="#F8F8F8"/>
</svg>
