<svg width="68" height="66" viewBox="0 0 68 66" fill="none" xmlns="http://www.w3.org/2000/svg">
<ellipse cx="33.7869" cy="33" rx="33.5955" ry="32.5" fill="white"/>
<path d="M49.2932 28.5005H41.8661L35.0746 18.6605C34.9322 18.4562 34.7398 18.289 34.5146 18.174C34.2893 18.0589 34.0382 17.9995 33.7835 18.001C33.5288 18.0025 33.2784 18.0648 33.0546 18.1825C32.8308 18.3002 32.6405 18.4695 32.5007 18.6755L25.7092 28.5005H18.282C17.4292 28.5005 16.7314 29.1755 16.7314 30.0005C16.7314 30.1355 16.7314 30.2705 16.7935 30.4055L20.7319 44.3105C21.0885 45.5705 22.2825 46.5005 23.709 46.5005H43.8663C45.2928 46.5005 46.4867 45.5705 46.8589 44.3105L50.7973 30.4055L50.8438 30.0005C50.8438 29.1755 50.1461 28.5005 49.2932 28.5005ZM33.7876 22.2005L38.1292 28.5005H29.4461L33.7876 22.2005ZM43.8663 43.5005H23.709L20.3132 31.5005H47.2775L43.8663 43.5005ZM33.7876 34.5005C32.082 34.5005 30.6865 35.8505 30.6865 37.5005C30.6865 39.1505 32.082 40.5005 33.7876 40.5005C35.4932 40.5005 36.8888 39.1505 36.8888 37.5005C36.8888 35.8505 35.4932 34.5005 33.7876 34.5005Z" fill="#00205C"/>
</svg>
