<svg width="68" height="66" viewBox="0 0 68 66" fill="none" xmlns="http://www.w3.org/2000/svg">
<ellipse cx="33.7869" cy="33" rx="33.5955" ry="32.5" fill="white"/>
<path d="M46.8121 26.7L41.0233 29.5M41.0233 29.5L40.2997 29.85L33.7873 33M41.0233 29.5V34.4M41.0233 29.5L27.275 22.5M33.7873 33L20.7626 26.7M33.7873 33V46.3M38.9654 20.9348L41.8598 22.4048C44.9727 23.9854 46.5299 24.775 47.3953 26.196C48.2592 27.6156 48.2592 29.3838 48.2592 32.9188V33.0826C48.2592 36.6162 48.2592 38.3844 47.3953 39.804C46.5299 41.225 44.9727 42.016 41.8598 43.5966L38.9654 45.0652C36.4241 46.3546 35.1535 47 33.7873 47C32.4212 47 31.1506 46.356 28.6093 45.0652L25.7149 43.5952C22.602 42.0146 21.0448 41.225 20.1794 39.804C19.3154 38.3844 19.3154 36.6162 19.3154 33.084V32.9202C19.3154 29.3852 19.3154 27.617 20.1794 26.1974C21.0448 24.7764 22.602 23.9854 25.7149 22.4062L28.6093 20.9362C31.1506 19.6454 32.4212 19 33.7873 19C35.1535 19 36.4241 19.644 38.9654 20.9348Z" stroke="#00205C" stroke-width="2.8" stroke-linecap="round"/>
</svg>
