<svg width="68" height="66" viewBox="0 0 68 66" fill="none" xmlns="http://www.w3.org/2000/svg">
<ellipse cx="34.1238" cy="33" rx="33.5955" ry="32.5" fill="white"/>
<g clip-path="url(#clip0_201_252)">
<path d="M44.1348 27.4365H25.1504C24.8023 27.4365 24.5176 27.7213 24.5176 28.0693V31.0225C24.5176 31.3705 24.8023 31.6553 25.1504 31.6553H32.5332V43.6787C32.5332 44.0268 32.818 44.3115 33.166 44.3115H36.1191C36.4672 44.3115 36.752 44.0268 36.752 43.6787V31.6553H44.1348C44.4828 31.6553 44.7676 31.3705 44.7676 31.0225V28.0693C44.7676 27.7213 44.4828 27.4365 44.1348 27.4365ZM44.1348 20.6865H25.1504C24.8023 20.6865 24.5176 20.9713 24.5176 21.3193V24.2725C24.5176 24.6205 24.8023 24.9053 25.1504 24.9053H44.1348C44.4828 24.9053 44.7676 24.6205 44.7676 24.2725V21.3193C44.7676 20.9713 44.4828 20.6865 44.1348 20.6865Z" fill="#00205C"/>
</g>
<defs>
<clipPath id="clip0_201_252">
<rect width="20.25" height="27" fill="white" transform="translate(24.5176 19)"/>
</clipPath>
</defs>
</svg>
